<?xml version="1.0" encoding="utf-8" ?>
<svg xmlns="http://www.w3.org/2000/svg" xmlns:xlink="http://www.w3.org/1999/xlink" width="1024" height="1024">
	<path fill="#0E1A2E" d="M505.387 146.214C510.426 145.911 515.502 146.02 520.543 146.248Q523.973 146.385 527.397 146.624Q530.821 146.862 534.237 147.202Q537.653 147.542 541.057 147.982Q544.461 148.422 547.851 148.963Q551.24 149.504 554.612 150.145Q557.985 150.786 561.336 151.526Q564.688 152.267 568.017 153.106Q571.345 153.945 574.647 154.882Q577.949 155.819 581.222 156.853Q584.495 157.887 587.736 159.018Q590.977 160.148 594.184 161.374Q597.39 162.6 600.558 163.92Q603.727 165.24 606.855 166.654Q609.983 168.067 613.068 169.572Q616.153 171.077 619.192 172.673Q622.231 174.268 625.222 175.953C633.171 180.34 640.66 185.644 648.524 190.207C656.329 194.736 664.384 198.926 672.019 203.732Q683.007 210.784 693.575 218.449Q704.144 226.114 714.26 234.368Q724.375 242.622 734.005 251.438Q743.634 260.254 752.747 269.603C763.561 280.713 773.769 292.285 783.879 304.034C795.186 317.175 806.118 330.514 819.64 341.486Q823.405 344.552 827.381 347.338Q831.357 350.124 835.523 352.616Q839.69 355.107 844.026 357.292Q848.361 359.477 852.843 361.343Q858.495 363.736 864.428 365.307C869.967 366.783 879.077 367.165 882.964 371.786C884.202 373.258 884.67 375.089 884.382 376.983C884.051 379.157 882.896 380.848 881.164 382.162C875.468 386.486 867.794 389.103 861.315 392.165C851.095 396.996 841.132 402.566 832.159 409.459C834.116 422.32 837.404 434.859 839.053 447.836Q839.684 452.689 840.174 457.558Q840.664 462.427 841.013 467.308Q841.361 472.189 841.568 477.078Q841.775 481.967 841.84 486.86Q841.905 491.753 841.828 496.646Q841.751 501.539 841.532 506.428Q841.313 511.316 840.953 516.196Q840.592 521.077 840.09 525.944Q839.588 530.812 838.945 535.663Q838.302 540.514 837.519 545.345Q836.735 550.175 835.812 554.981Q834.889 559.786 833.827 564.563Q832.764 569.34 831.564 574.084Q830.364 578.828 829.026 583.535Q827.689 588.242 826.216 592.909Q824.742 597.575 823.134 602.197C864.931 617.663 898.408 635.051 936.058 658.834C946.967 665.725 958.805 672.154 967.451 681.895C967.572 691.492 969.45 713.518 964.25 721.223C961.835 722.801 958.637 723.527 955.803 724.012C950.168 724.978 944.265 724.975 938.572 725.565C928.345 726.625 918.135 728.105 907.937 729.422C860.453 735.553 813.227 742.701 766.952 755.28C720.803 767.824 684.857 783.583 644.413 808.774C631.876 816.583 621.064 826.992 609.805 836.475C583.045 859.013 552.255 875.854 516.375 876.518C505.887 877.256 495.746 876.173 485.492 873.982C454.273 867.311 436.563 851.756 412.594 832.842C405.061 826.897 397.17 821.339 389.257 815.917Q380.706 810.093 371.891 804.677Q363.076 799.262 354.015 794.267Q344.955 789.272 335.67 784.709Q326.385 780.146 316.895 776.025C269.272 755.359 208.124 739.135 156.536 732.873C140.399 730.914 124.107 729.156 107.908 727.781C98.9657 727.022 66.7572 726.381 61.2512 724.11C58.7945 723.097 57.2833 721.348 56.3944 718.841C54.283 712.884 54.4705 686.444 57.3533 680.976C60.992 674.075 72.0723 668.495 78.464 664.296C118.4 638.065 154.903 618.754 199.879 602.585C195.002 590.345 191.838 576.707 189.163 563.82Q187.551 556 186.317 548.112Q185.084 540.224 184.231 532.286Q183.378 524.348 182.908 516.378Q182.439 508.408 182.353 500.424Q182.268 492.441 182.566 484.462Q182.865 476.484 183.547 468.529Q184.229 460.575 185.294 452.662Q186.358 444.749 187.802 436.897C189.448 427.709 191.826 418.594 193.933 409.499C186.327 404.97 179.329 399.882 171.387 395.842C163.87 392.018 149.787 387.518 144.076 383.176C142.049 381.635 140.533 379.535 140.27 376.949C140.072 374.999 140.676 373.284 141.948 371.806C145.49 367.692 153.276 367.198 158.25 365.461C161.369 364.372 164.434 362.949 167.448 361.595C180.592 355.692 193.535 348.595 204.708 339.446C217.741 328.774 228.499 316.008 239.703 303.515Q252.747 289.158 266.428 275.407Q284.753 257.512 304.488 241.186Q324.223 224.859 345.235 210.212C353.128 204.798 361.529 200.102 369.552 194.879C375.332 191.117 380.854 186.965 386.665 183.249Q396.914 176.728 407.753 171.245Q418.593 165.763 429.919 161.372C454.339 152.13 479.43 147.837 505.387 146.214Z"/>
	<path fill="#FEFEFE" d="M707.282 604.703C756.323 602.322 801.96 613.408 847.246 631.558C857.173 635.536 868.07 639.188 877.184 644.754C794.057 622.169 710.247 616.513 629.126 649.799Q626.124 651.043 623.158 652.37Q620.193 653.696 617.265 655.105Q614.337 656.514 611.449 658.004Q608.562 659.493 605.717 661.063Q602.872 662.632 600.072 664.28Q597.272 665.928 594.518 667.653Q591.765 669.379 589.061 671.18Q586.357 672.981 583.704 674.857Q581.05 676.732 578.451 678.681Q575.851 680.63 573.306 682.65Q570.762 684.671 568.274 686.761Q565.787 688.851 563.358 691.01Q560.93 693.169 558.563 695.394Q556.195 697.62 553.891 699.91Q551.586 702.201 549.346 704.554Q547.107 706.908 544.933 709.323C537.885 717.279 531.625 725.91 525.303 734.443C532.293 713.217 545.867 691.675 560.393 674.803Q561.785 673.187 563.212 671.602Q564.638 670.016 566.097 668.461Q567.557 666.906 569.049 665.382Q570.541 663.858 572.065 662.366Q573.59 660.875 575.145 659.415Q576.701 657.956 578.287 656.531Q579.873 655.105 581.489 653.713Q583.105 652.321 584.75 650.964Q586.396 649.607 588.069 648.285Q589.743 646.963 591.444 645.677Q593.146 644.391 594.874 643.141Q596.602 641.891 598.357 640.679Q600.111 639.466 601.891 638.291Q603.671 637.116 605.475 635.978Q607.279 634.841 609.107 633.743Q610.935 632.644 612.786 631.584Q614.637 630.525 616.51 629.505Q618.383 628.484 620.277 627.504Q622.172 626.524 624.086 625.585Q626.001 624.645 627.935 623.746Q629.869 622.847 631.822 621.99Q633.775 621.132 635.745 620.316Q637.716 619.5 639.703 618.726Q641.69 617.952 643.694 617.221Q645.697 616.489 647.716 615.8Q649.734 615.112 651.767 614.466Q653.799 613.82 655.845 613.217Q657.891 612.615 659.949 612.055Q662.007 611.496 664.077 610.981Q666.147 610.466 668.227 609.995Q670.307 609.523 672.396 609.096Q674.486 608.67 676.584 608.287C686.753 606.375 696.973 605.466 707.282 604.703Z"/>
	<path fill="#FEFEFE" d="M287.389 604.277Q290.877 604.062 294.37 603.954Q297.862 603.846 301.357 603.845Q304.851 603.843 308.344 603.949Q311.837 604.054 315.325 604.266Q318.812 604.478 322.292 604.796Q325.772 605.114 329.241 605.538Q332.709 605.962 336.163 606.492Q339.617 607.022 343.053 607.657Q346.49 608.292 349.905 609.032Q353.32 609.771 356.711 610.615Q360.102 611.458 363.466 612.405Q366.83 613.352 370.163 614.401Q373.496 615.45 376.796 616.6Q380.095 617.75 383.359 619Q386.622 620.25 389.845 621.6Q393.068 622.949 396.249 624.396C443.187 646.282 481.908 686.456 499.591 735.46C493.353 727.971 487.74 719.962 481.359 712.562C462.526 690.723 440.229 674.01 415.226 659.892C352.708 625.699 275.52 620.679 206.25 631.671C185.96 634.891 166.331 640.211 146.368 644.866C152.517 641.514 159.202 638.769 165.584 635.871C204.005 618.421 245.101 606.398 287.389 604.277Z"/>
	<path fill="#F08A4C" d="M707.537 252.894C714.625 256.63 723.315 267.311 729.304 273.292Q747.116 290.841 763.981 309.303C792.069 340.288 807.133 359.847 845.9 378.646C817.555 395.778 794.096 410.2 768.461 431.624C749.807 447.686 732.16 465.141 715.034 482.805C719.028 471.975 724.819 461.788 728.815 450.872C748.018 398.413 745.801 339.333 725.042 287.739C720.172 275.635 712.978 264.703 707.537 252.894Z"/>
	<path fill="#F08A4C" d="M315.818 254.885L316.308 255.668C314.165 261.095 310.1 266.19 307.313 271.357C303.742 277.973 300.856 285.419 298.169 292.441Q297.221 294.916 296.331 297.413Q295.44 299.91 294.607 302.426Q293.774 304.943 292.999 307.477Q292.224 310.012 291.508 312.565Q290.792 315.117 290.134 317.685Q289.477 320.252 288.879 322.835Q288.281 325.417 287.742 328.013Q287.203 330.608 286.725 333.215Q286.246 335.822 285.827 338.44Q285.409 341.057 285.05 343.683Q284.692 346.31 284.394 348.944Q284.097 351.578 283.859 354.218Q283.622 356.858 283.446 359.503Q283.27 362.148 283.154 364.796Q283.039 367.444 282.984 370.094Q282.93 372.744 282.936 375.395Q282.943 378.046 283.01 380.695Q283.078 383.345 283.206 385.993Q283.335 388.641 283.524 391.284Q283.713 393.928 283.963 396.567Q284.213 399.206 284.524 401.839Q284.835 404.471 285.206 407.096Q285.577 409.72 286.009 412.336Q286.44 414.951 286.932 417.556Q287.423 420.16 287.975 422.753Q288.526 425.346 289.137 427.925Q289.748 430.505 290.418 433.069Q291.088 435.634 291.816 438.182Q292.545 440.731 293.332 443.262Q294.12 445.793 294.965 448.305Q295.81 450.818 296.713 453.31Q297.616 455.802 298.576 458.273C302.254 467.955 307.602 476.38 311.788 485.764C305.786 480.262 300.645 473.751 294.847 468.002Q276.437 449.864 256.793 433.07C242.85 421.751 228.807 410.657 213.723 400.869C201.489 392.93 188.666 386.083 176.397 378.271C188.047 372.594 199.032 366.51 209.42 358.729C248.909 329.154 275.881 285.437 315.818 254.885Z"/>
	<path fill="#E2BA87" d="M743.688 644.741C790.027 644.059 835.601 652.189 879.866 665.504C890.239 668.625 900.939 671.598 910.904 675.844C826.222 668.043 737.973 666.897 656.43 693.98C644.886 697.814 632.883 701.714 621.928 707.038C587.11 723.562 553.003 747.681 531.084 779.886Q527.595 779.604 524.1 779.4C534.002 758.955 543.304 739.784 558.392 722.5C596.239 679.142 648.426 656.766 704.498 648.495C717.501 646.577 730.585 645.643 743.688 644.741Z"/>
	<path fill="#E2BA87" d="M265.489 644.74Q272.257 644.617 279.024 644.779Q285.791 644.94 292.545 645.385Q299.299 645.83 306.028 646.559Q312.758 647.287 319.451 648.297Q326.144 649.307 332.789 650.597Q339.433 651.888 346.018 653.456Q352.603 655.023 359.116 656.866Q365.629 658.709 372.059 660.824C432.549 681.275 474.735 722.755 502.646 779.306Q497.31 779.444 491.973 779.523C466.08 749.752 444.305 731.842 409.893 712.448C346.649 677.749 256.795 669.688 185.544 671.643Q166.585 672.091 147.661 673.337C134.624 674.263 121.642 675.626 108.575 676.062C122.275 672.189 135.663 667.192 149.39 663.348C188.608 652.363 224.872 646.538 265.489 644.74Z"/>
	<path fill="#267680" d="M176.465 689.786L177.337 689.726C194.937 688.684 212.68 689.494 230.277 690.256C301.773 693.351 379.415 706.499 437.382 751.63Q445.43 757.906 452.794 764.972Q460.158 772.038 466.762 779.819C471.759 785.704 475.771 792.055 481.589 797.229C492.342 799.361 504.027 798.048 514.948 797.864C523.425 797.721 531.927 798.02 540.401 798.264C550.768 782.975 563.211 769.85 577.064 757.677C657.441 687.051 789.418 685.79 890.018 692.166C909.573 693.405 928.917 696.286 948.453 697.558C948.218 700.355 948.127 703.177 947.981 705.981C933.175 708.11 918.183 709.277 903.34 711.198Q862.471 716.436 821.89 723.567C807.724 725.821 793.723 729.579 779.84 733.145C734.932 744.68 691.394 759.378 651.089 782.707C637.088 790.811 624.097 800.393 611.572 810.602C603.42 817.247 595.65 824.454 587.267 830.797Q585.583 832.074 583.86 833.296Q582.136 834.518 580.374 835.685Q578.612 836.852 576.814 837.961Q575.016 839.071 573.183 840.122Q571.35 841.174 569.485 842.167Q567.62 843.159 565.723 844.092Q563.827 845.024 561.902 845.895Q559.977 846.767 558.025 847.576Q556.073 848.385 554.096 849.132Q552.12 849.879 550.12 850.561Q548.12 851.245 546.1 851.863Q544.08 852.482 542.04 853.036Q540.001 853.59 537.945 854.078Q535.89 854.567 533.819 854.989Q531.749 855.411 529.666 855.768Q527.583 856.124 525.49 856.413Q523.142 856.727 520.782 856.937Q518.423 857.147 516.057 857.253Q513.69 857.359 511.321 857.36Q508.952 857.361 506.586 857.258Q504.219 857.154 501.859 856.947Q499.5 856.739 497.151 856.427Q494.803 856.115 492.471 855.7Q490.139 855.285 487.827 854.767Q485.516 854.25 483.229 853.63Q480.943 853.011 478.686 852.292Q476.429 851.572 474.206 850.753Q471.983 849.935 469.798 849.019Q467.614 848.103 465.471 847.092Q463.329 846.08 461.234 844.975Q459.139 843.87 457.094 842.674Q455.05 841.477 453.06 840.192C441.132 832.528 430.489 823.305 419.313 814.637Q402.205 801.36 383.822 789.913C358.433 773.851 330.761 761.308 302.642 750.828Q292.889 747.276 283.039 744.005Q273.188 740.733 263.248 737.745Q253.308 734.757 243.287 732.055Q233.265 729.352 223.17 726.938Q213.076 724.523 202.916 722.398Q192.756 720.274 182.54 718.441Q172.324 716.608 162.059 715.068Q151.794 713.528 141.49 712.282C119.3 709.687 96.8297 708.483 74.5238 707.3L74.4773 698.66C87.7708 697.474 100.962 694.945 114.262 693.571C134.893 691.439 155.745 690.659 176.465 689.786Z"/>
	<path fill="#7AC3C3" d="M210.074 419.789C233.519 436.392 254.797 454.67 275.299 474.753C288.375 487.562 300.807 501.013 314.196 513.501C357.129 553.542 411.442 590.771 469.863 602.278Q472.303 602.751 474.752 603.17Q477.201 603.589 479.66 603.953Q482.118 604.318 484.583 604.628Q487.049 604.939 489.52 605.194Q491.992 605.45 494.469 605.651Q496.946 605.852 499.427 605.998Q501.907 606.144 504.391 606.235Q506.874 606.327 509.359 606.363Q511.843 606.4 514.328 606.381Q516.813 606.362 519.297 606.289Q521.781 606.216 524.263 606.087Q526.744 605.959 529.222 605.776Q531.701 605.592 534.174 605.354Q536.648 605.117 539.116 604.824Q541.583 604.532 544.044 604.185Q546.504 603.838 548.957 603.436Q551.409 603.035 553.852 602.58Q556.295 602.124 558.727 601.615Q561.159 601.106 563.58 600.543Q566 599.98 568.408 599.363Q570.815 598.747 573.208 598.078Q575.601 597.409 577.979 596.686Q580.357 595.964 582.718 595.19Q585.079 594.415 587.423 593.589Q589.766 592.762 592.091 591.884Q594.416 591.006 596.72 590.077Q599.025 589.148 601.309 588.168Q603.592 587.188 605.853 586.158Q608.115 585.128 610.353 584.048Q612.591 582.968 614.805 581.839Q617.018 580.709 619.206 579.532Q621.394 578.354 623.556 577.128C637.355 569.18 649.912 559.189 662.777 549.852C677.326 539.293 692.156 529.717 705.453 517.511C741.809 484.137 773.936 447.049 815.251 419.333C817.846 427.472 818.827 435.886 819.991 444.317Q820.973 451.26 821.661 458.239Q822.349 465.217 822.744 472.218Q823.138 479.22 823.237 486.231Q823.337 493.243 823.141 500.253Q822.945 507.262 822.454 514.257Q821.963 521.252 821.179 528.221Q820.394 535.189 819.317 542.118Q818.24 549.047 816.872 555.925C813.83 570.051 809.837 583.406 805.024 597.032C748.385 583.454 691.824 580.198 636.383 600.803Q634.322 601.545 632.277 602.33Q630.232 603.114 628.204 603.939Q626.175 604.765 624.164 605.632Q622.152 606.498 620.159 607.406Q618.165 608.313 616.191 609.261Q614.216 610.208 612.261 611.196Q610.306 612.183 608.372 613.211Q606.437 614.238 604.524 615.304Q602.611 616.37 600.72 617.475Q598.829 618.58 596.96 619.723Q595.092 620.866 593.247 622.047Q591.403 623.228 589.583 624.446Q587.762 625.664 585.967 626.919Q584.172 628.173 582.403 629.464Q580.633 630.755 578.891 632.082Q577.148 633.409 575.433 634.771Q573.717 636.133 572.03 637.529Q570.343 638.925 568.684 640.356Q567.026 641.786 565.396 643.25Q563.767 644.714 562.168 646.211Q560.569 647.707 559 649.236Q557.432 650.765 555.895 652.325Q554.358 653.885 552.853 655.477Q551.348 657.068 549.876 658.69Q548.404 660.311 546.965 661.962Q545.526 663.613 544.12 665.293Q542.715 666.973 541.344 668.682Q539.974 670.39 538.638 672.126Q537.302 673.861 536.002 675.624Q534.702 677.386 533.438 679.175Q532.173 680.964 530.946 682.778Q529.718 684.591 528.528 686.43C522.177 696.447 517.042 707.043 512.1 717.806C493.791 675.601 464.795 643.4 425.668 619.242C362.169 580.037 288.444 580.292 217.844 596.98C197.119 541.088 196.531 477.482 210.074 419.789Z"/>
	<path fill="#FEFEFE" d="M500.282 164.701C500.998 164.561 501.808 164.554 502.535 164.507C555.009 161.077 611.274 181.639 650.54 216.293C692.759 253.553 719.131 304.652 722.588 361.125C726.069 417.986 707.807 472.07 669.991 514.762C632.586 556.988 581.057 584.103 524.471 587.566C523.727 587.679 522.999 587.781 522.249 587.853C474.437 592.445 416.416 570.137 379.705 540.276Q377.673 538.602 375.682 536.88Q373.692 535.157 371.744 533.386Q369.796 531.615 367.892 529.797Q365.988 527.979 364.129 526.115Q362.27 524.251 360.457 522.343Q358.644 520.434 356.878 518.481Q355.112 516.529 353.395 514.533Q351.677 512.538 350.009 510.502Q348.341 508.465 346.723 506.389Q345.105 504.312 343.539 502.196Q341.972 500.081 340.457 497.927Q338.943 495.774 337.481 493.584Q336.02 491.395 334.612 489.17Q333.205 486.945 331.852 484.687Q330.5 482.428 329.203 480.138Q327.905 477.847 326.665 475.525Q325.424 473.203 324.241 470.852Q323.057 468.5 321.931 466.12Q320.805 463.741 319.738 461.334Q318.671 458.928 317.663 456.496Q316.655 454.064 315.706 451.608Q314.758 449.152 313.87 446.674Q312.982 444.196 312.155 441.697Q311.327 439.197 310.561 436.679Q309.796 434.16 309.091 431.623Q308.387 429.087 307.745 426.534Q307.103 423.981 306.524 421.413Q305.945 418.845 305.428 416.263Q304.912 413.682 304.459 411.088Q304.006 408.495 303.616 405.892Q303.227 403.288 302.901 400.676Q302.575 398.063 302.313 395.444C296.577 338.566 315.522 282.603 351.435 238.706C378.05 206.175 417.196 181.425 457.979 171.179C471.917 167.677 486.018 166.137 500.282 164.701Z"/>
	<path fill="#B44250" d="M507.027 248.206C536.613 246.617 567.829 256.093 591.05 274.622C617.301 295.57 635.38 327.446 639.037 360.871C642.589 393.346 632.688 428.745 612.168 454.22C587.783 484.492 555.849 498.21 518.033 502.414C484.594 503.083 455.131 492.864 429.453 471.385C404.61 450.605 387.592 419.17 384.789 386.784C381.794 352.176 392.744 319.012 415.104 292.537C438.403 264.95 471.728 251.142 507.027 248.206Z"/>
	<path fill="#EA7D7B" d="M503.959 268.689C504.12 268.662 504.279 268.63 504.44 268.609C528.065 265.468 555.354 274.1 574.349 287.95C597.396 304.755 613.141 329.511 617.449 357.8Q617.663 359.115 617.844 360.436Q618.025 361.756 618.173 363.08Q618.321 364.405 618.436 365.732Q618.551 367.06 618.633 368.39Q618.715 369.72 618.764 371.052Q618.813 372.384 618.829 373.716Q618.844 375.049 618.827 376.381Q618.81 377.714 618.759 379.045Q618.708 380.377 618.625 381.707Q618.541 383.037 618.424 384.365Q618.308 385.692 618.158 387.016Q618.008 388.34 617.826 389.66Q617.643 390.981 617.428 392.296Q617.212 393.611 616.964 394.92Q616.716 396.229 616.436 397.532Q616.155 398.835 615.842 400.13Q615.529 401.426 615.184 402.713Q614.839 404 614.463 405.278Q614.086 406.557 613.677 407.825Q613.268 409.093 612.828 410.351Q612.388 411.609 611.917 412.856Q611.446 414.102 610.944 415.337Q610.442 416.571 609.91 417.793Q609.377 419.014 608.814 420.222Q608.251 421.43 607.659 422.624Q607.066 423.817 606.444 424.996Q605.822 426.174 605.17 427.337Q604.519 428.5 603.839 429.646Q603.159 430.792 602.45 431.92Q601.742 433.049 601.006 434.16Q600.27 435.271 599.506 436.363Q598.743 437.455 597.952 438.528C578.272 465.012 552.029 476.822 520.068 481.478C493.83 482.35 469.693 476.275 448.487 460.289C425.454 442.927 409.709 417.733 405.781 389.033Q405.613 387.74 405.477 386.443Q405.342 385.146 405.238 383.846Q405.134 382.547 405.062 381.245Q404.991 379.943 404.951 378.639Q404.912 377.336 404.905 376.032Q404.897 374.728 404.922 373.424Q404.947 372.121 405.004 370.818Q405.061 369.515 405.151 368.214Q405.24 366.914 405.361 365.615Q405.483 364.317 405.636 363.022Q405.79 361.727 405.975 360.437Q406.16 359.146 406.377 357.86Q406.595 356.574 406.844 355.294Q407.092 354.014 407.373 352.741Q407.653 351.468 407.965 350.201Q408.277 348.935 408.62 347.677Q408.962 346.419 409.336 345.17Q409.71 343.921 410.115 342.681Q410.52 341.442 410.955 340.212Q411.39 338.983 411.855 337.765Q412.321 336.547 412.816 335.341Q413.311 334.135 413.836 332.941Q414.361 331.747 414.915 330.567Q415.47 329.387 416.053 328.221Q416.636 327.054 417.248 325.903Q417.86 324.751 418.5 323.615Q419.14 322.479 419.808 321.36Q420.476 320.24 421.171 319.137Q421.867 318.034 422.589 316.948Q423.312 315.863 424.061 314.795Q424.81 313.728 425.585 312.68Q426.36 311.631 427.161 310.602C446.39 285.454 473.104 272.859 503.959 268.689Z"/>
	<path fill="#FEFEFE" d="M535.502 312.96C542.778 303.674 550.996 297.287 563 295.851C572.175 294.754 581.248 297.101 588.518 302.87Q589.199 303.415 589.851 303.993Q590.504 304.57 591.127 305.18Q591.75 305.79 592.341 306.43Q592.933 307.07 593.492 307.739Q594.051 308.408 594.576 309.104Q595.1 309.8 595.59 310.522Q596.079 311.243 596.532 311.988Q596.985 312.733 597.4 313.499Q597.815 314.266 598.191 315.052Q598.567 315.838 598.904 316.643Q599.24 317.447 599.536 318.267Q599.832 319.087 600.086 319.92Q600.341 320.754 600.553 321.599Q600.766 322.445 600.936 323.3Q601.106 324.155 601.233 325.017Q601.36 325.879 601.444 326.747C602.418 336.192 599.771 346.339 593.809 353.814C590.594 357.846 584.717 363.026 579.574 364.119C570.199 366.394 560.804 366.736 551.792 362.832Q551.014 362.503 550.254 362.137Q549.494 361.77 548.753 361.366Q548.012 360.961 547.292 360.521Q546.572 360.08 545.874 359.604Q545.177 359.128 544.504 358.618Q543.832 358.108 543.185 357.566Q542.539 357.023 541.92 356.448Q541.302 355.874 540.712 355.27Q540.123 354.665 539.565 354.032Q539.006 353.399 538.48 352.739Q537.954 352.079 537.461 351.393Q536.968 350.708 536.51 349.999Q536.052 349.29 535.63 348.559Q535.208 347.828 534.823 347.077Q534.437 346.325 534.09 345.556Q533.743 344.787 533.434 344.001C529.376 333.419 531.044 323.086 535.502 312.96Z"/>
	<path fill="#0E1A2E" d="M579.574 364.119C579.949 364.514 580.156 364.672 580.37 365.244C583.662 374.069 579.749 393.289 576.497 401.901C569.666 419.988 556.043 433.211 538.487 440.961Q536.94 441.634 535.362 442.229Q533.784 442.825 532.178 443.342Q530.572 443.859 528.943 444.296Q527.313 444.733 525.664 445.089Q524.016 445.444 522.351 445.718Q520.687 445.992 519.011 446.184Q517.335 446.375 515.651 446.483Q513.968 446.592 512.281 446.617Q510.594 446.642 508.908 446.583Q507.223 446.525 505.542 446.383Q503.861 446.242 502.189 446.017Q500.517 445.793 498.858 445.486Q497.199 445.179 495.558 444.791Q493.916 444.402 492.296 443.933Q490.676 443.464 489.08 442.915Q487.485 442.367 485.919 441.74Q484.364 441.137 482.841 440.456Q481.318 439.776 479.83 439.02Q478.343 438.264 476.896 437.435Q475.448 436.606 474.044 435.705Q472.64 434.804 471.282 433.834Q469.925 432.865 468.618 431.828Q467.311 430.792 466.057 429.691Q464.803 428.591 463.606 427.429Q462.409 426.267 461.272 425.047Q460.134 423.826 459.06 422.55Q457.985 421.275 456.975 419.947Q455.965 418.619 455.023 417.242Q454.081 415.865 453.209 414.443Q452.337 413.021 451.537 411.557Q450.737 410.093 450.012 408.591Q449.286 407.089 448.637 405.552C441.001 387.766 441.746 368.418 448.936 350.712C455.435 334.71 469.278 321.391 485.216 314.908C500.314 308.767 520.197 306.44 535.502 312.96C531.044 323.086 529.376 333.419 533.434 344.001Q533.743 344.787 534.09 345.556Q534.437 346.325 534.823 347.077Q535.208 347.828 535.63 348.559Q536.052 349.29 536.51 349.999Q536.968 350.708 537.461 351.393Q537.954 352.079 538.48 352.739Q539.006 353.399 539.565 354.032Q540.123 354.665 540.712 355.27Q541.302 355.874 541.92 356.448Q542.539 357.023 543.185 357.566Q543.832 358.108 544.504 358.618Q545.177 359.128 545.874 359.604Q546.572 360.08 547.292 360.521Q548.012 360.961 548.753 361.366Q549.494 361.77 550.254 362.137Q551.014 362.503 551.792 362.832C560.804 366.736 570.199 366.394 579.574 364.119Z"/>
</svg>
